<?xml version="1.0" encoding="utf-8"?>
<!-- Generator: Adobe Illustrator 24.0.2, SVG Export Plug-In . SVG Version: 6.00 Build 0)  -->
<svg version="1.1" id="Laag_1" xmlns="http://www.w3.org/2000/svg" xmlns:xlink="http://www.w3.org/1999/xlink" x="0px" y="0px"
	 viewBox="0 0 713.4 175.9" style="enable-background:new 0 0 713.4 175.9;" xml:space="preserve">
<style type="text/css">
	.st0{fill:#E7B01C;}
	.st1{fill:#FFFFFF;}
</style>
<path class="st0" d="M160.6,105.4c-2.4,12.4-21.6,26-43.6,28.6c-11.5,1.4-22.8,2.6-34.9,2.1c-19.7-0.9-35.3-4.7-35.3-4.7
	c0,1.9,0.1,3.8,0.4,5.5c2.6,19.5,19.3,20.6,35.2,21.2c16,0.5,30.3-3.9,30.3-3.9l0.7,14.5c0,0-11.2,6-31.1,7.1
	c-11,0.6-24.7-0.3-40.6-4.5C7,162.1,1.1,125.3,0.2,88c-0.3-11.1-0.1-21.5-0.1-30.3c0-38.2,25-49.3,25-49.3C37.7,2.6,59.3,0.2,81.8,0
	h0.6c22.5,0.2,44.1,2.6,56.7,8.4c0,0,25,11.2,25,49.3C164,57.7,164.4,85.9,160.6,105.4"/>
<path class="st1" d="M34.7,48.5c0-5.6,4.5-10.1,10.1-10.1c5.6,0,10.1,4.5,10.1,10.1c0,5.6-4.5,10.1-10.1,10.1
	C39.2,58.5,34.7,54,34.7,48.5 M178.9,60.7v46.2h-18.3V62.1c0-9.5-4-14.2-11.9-14.2c-8.8,0-13.2,5.7-13.2,16.9v24.5h-18.2V64.8
	c0-11.3-4.4-16.9-13.2-16.9c-8,0-11.9,4.8-11.9,14.2v44.8H73.8V60.7c0-9.4,2.4-16.9,7.2-22.5c5-5.5,11.5-8.4,19.6-8.4
	c9.4,0,16.5,3.6,21.1,10.8l4.6,7.6l4.6-7.6c4.7-7.2,11.8-10.8,21.1-10.8c8.1,0,14.6,2.8,19.6,8.4C176.5,43.8,178.9,51.3,178.9,60.7
	 M241.9,83.7c3.8-4,5.6-9,5.6-15.1s-1.8-11.1-5.6-14.9c-3.6-4-8.3-5.9-13.8-5.9c-5.6,0-10.2,1.9-13.8,5.9c-3.6,3.8-5.5,8.9-5.5,14.9
	s1.8,11.1,5.5,15.1c3.6,3.8,8.3,5.8,13.8,5.8C233.7,89.4,238.3,87.5,241.9,83.7 M247.5,31.6h18v73.9h-18v-8.7
	c-5.5,7.2-13,10.8-22.8,10.8c-9.4,0-17.3-3.7-24.1-11.2c-6.6-7.5-9.9-16.8-9.9-27.8c0-10.8,3.4-20.1,9.9-27.6
	c6.7-7.5,14.7-11.4,24.1-11.4c9.8,0,17.3,3.5,22.8,10.8C247.5,40.4,247.5,31.6,247.5,31.6z M326.3,67.3c5.3,4,8,9.6,7.8,16.7
	c0,7.5-2.7,13.4-8.1,17.6c-5.5,4-12,6.1-20,6.1c-14.4,0-24.2-5.9-29.4-17.6l15.7-9.3c2.1,6.4,6.7,9.6,13.7,9.6
	c6.4,0,9.7-2.1,9.7-6.4c0-3.1-4.2-5.9-12.7-8.1c-3.2-0.9-5.9-1.8-8-2.5c-2.9-1.2-5.5-2.5-7.6-4.1c-5.2-4-7.8-9.3-7.8-16.1
	c0-7.2,2.5-13,7.6-17.1c5.2-4.3,11.5-6.4,19-6.4c12,0,20.8,5.2,26.6,15.7l-15.4,8.9c-2.2-5-6-7.5-11.2-7.5c-5.5,0-8.1,2.1-8.1,6.1
	c0,3.1,4.2,5.9,12.7,8.1C317.3,62.2,322.5,64.4,326.3,67.3 M383.6,50h-15.8v30.7c0,3.7,1.4,5.9,4.1,6.9c2,0.7,5.9,0.9,11.8,0.6v17.3
	c-12.2,1.5-21,0.3-26.2-3.7c-5.2-3.8-7.7-10.9-7.7-21.1V50h-12.2V31.6h12.2V16.7l18-5.8v20.7h15.8C383.6,31.6,383.6,50,383.6,50z
	 M441.1,83.2c3.6-3.8,5.5-8.7,5.5-14.6s-1.8-10.8-5.5-14.6c-3.6-3.8-8.1-5.8-13.6-5.8c-5.5,0-9.9,1.9-13.6,5.8
	c-3.5,4-5.3,8.9-5.3,14.6c0,5.8,1.8,10.6,5.3,14.6c3.6,3.8,8.1,5.8,13.6,5.8C433,89,437.5,87.1,441.1,83.2 M401.3,96.4
	c-7.1-7.5-10.6-16.7-10.6-27.8c0-10.9,3.5-20.1,10.6-27.6s15.9-11.4,26.3-11.4c10.4,0,19.2,3.8,26.3,11.4
	c7.1,7.5,10.8,16.8,10.8,27.6c0,10.9-3.6,20.2-10.8,27.8c-7.1,7.5-15.8,11.2-26.3,11.2C417.1,107.6,408.4,103.9,401.3,96.4
	 M524.9,83.7c3.6-4,5.5-9,5.5-15.1s-1.8-11.1-5.5-14.9c-3.6-4-8.3-5.9-13.8-5.9c-5.6,0-10.2,1.9-14,5.9c-3.6,3.8-5.5,8.9-5.5,14.9
	s1.8,11.1,5.5,15.1c3.8,3.8,8.5,5.8,14,5.8C516.7,89.4,521.3,87.5,524.9,83.7 M530.4,2.1h18v103.5h-18v-8.7
	c-5.3,7.2-12.9,10.8-22.7,10.8c-9.4,0-17.5-3.7-24.2-11.2c-6.6-7.5-9.9-16.8-9.9-27.8c0-10.8,3.4-20.1,9.9-27.6
	c6.7-7.5,14.8-11.4,24.2-11.4c9.8,0,17.3,3.5,22.7,10.8C530.4,40.4,530.4,2.1,530.4,2.1z M611.8,83.2c3.6-3.8,5.5-8.7,5.5-14.6
	s-1.8-10.8-5.5-14.6c-3.6-3.8-8.1-5.8-13.6-5.8c-5.5,0-9.9,1.9-13.6,5.8c-3.5,4-5.3,8.9-5.3,14.6c0,5.8,1.8,10.6,5.3,14.6
	c3.6,3.8,8.1,5.8,13.6,5.8C603.7,89,608.2,87.1,611.8,83.2 M571.9,96.4c-7.1-7.5-10.6-16.7-10.6-27.8c0-10.9,3.5-20.1,10.6-27.6
	c7.1-7.5,15.9-11.4,26.3-11.4c10.4,0,19.2,3.8,26.3,11.4s10.8,16.8,10.8,27.6c0,10.9-3.6,20.2-10.8,27.8
	c-7.1,7.5-15.8,11.2-26.3,11.2C587.7,107.6,579.1,103.9,571.9,96.4 M713.4,60.2v45.4h-18v-43c0-4.9-1.3-8.6-3.8-11.4
	c-2.4-2.5-5.7-3.8-10.1-3.8c-10.2,0-15.4,6.1-15.4,18.3v39.9h-18V31.6h18v8.3c4.3-6.9,11.2-10.3,20.8-10.3c7.7,0,14,2.7,18.9,8.1
	C710.8,43.2,713.4,50.6,713.4,60.2"/>
</svg>
